<svg width="60" height="60" viewBox="0 0 68 101" fill="none" xmlns="http://www.w3.org/2000/svg">
<g clip-path="url(#clip0_307_722)">
<path d="M64.4888 64.2583C65.5388 65.3083 64.7944 67.1027 63.3111 67.1027H35.6666C34.7444 67.1027 34 67.8472 34 68.7694V96.4138C34 97.8971 32.2055 98.6416 31.1555 97.5916L1.31663 67.7527C0.899959 67.336 0.666626 66.7694 0.666626 66.1805V35.436C0.666626 34.5138 1.41107 33.7694 2.33329 33.7694H34L64.4888 64.2583Z" fill="black"/>
<path d="M34 33.7694L3.5111 3.28048C2.4611 2.23048 3.20554 0.436035 4.68887 0.436035H65.6667C66.5889 0.436035 67.3333 1.18048 67.3333 2.1027V32.1027C67.3333 33.0249 66.5889 33.7694 65.6667 33.7694H34Z" fill="black"/>
</g>
<defs>
<clipPath id="clip0_307_722">
<rect width="66.6667" height="100" fill="white" transform="translate(0.666626 0.436035)"/>
</clipPath>
</defs>
</svg>
