<svg width="60" height="60" viewBox="0 0 100 92" fill="none" xmlns="http://www.w3.org/2000/svg">
<path d="M75.0449 28.0468L51.1384 62.6124C50.885 62.9789 50.5184 63.2534 50.0944 63.3943C49.6704 63.5352 49.212 63.5339 48.7888 63.3923C48.3656 63.2501 48.0008 62.9742 47.7495 62.6071C47.4983 62.2393 47.3744 61.8 47.3968 61.3561L48.3536 42.2723L32.9074 38.9965C32.5773 38.9266 32.2698 38.7767 32.012 38.56C31.7542 38.3434 31.5541 38.0668 31.4294 37.7546C31.3048 37.4424 31.2595 37.1044 31.2975 36.7704C31.3354 36.4364 31.4555 36.1168 31.6471 35.8398L55.5538 1.27412C55.8073 0.907435 56.1739 0.632965 56.5979 0.492256C57.0221 0.351548 57.4804 0.352276 57.9037 0.494439C58.3269 0.636537 58.6918 0.912264 58.9429 1.27981C59.1941 1.64729 59.318 2.08649 59.2955 2.53077L58.3388 21.6148L73.7847 24.8903C74.1148 24.9602 74.4224 25.1102 74.6804 25.3268C74.9384 25.5434 75.1382 25.8201 75.2626 26.1322C75.3876 26.4444 75.4326 26.7825 75.3949 27.1164C75.3572 27.4504 75.2368 27.7698 75.0449 28.0468Z" fill="#FCC72B"/>
<path d="M50.0096 91.6128C49.3737 91.6134 48.744 91.489 48.1565 91.2456C47.5691 91.0022 47.0355 90.6449 46.5865 90.1951L23.9975 67.6077C23.0939 66.6994 22.5873 65.4696 22.589 64.1882C22.5907 62.9068 23.1005 61.6777 24.0067 60.7721C24.9128 59.8658 26.1413 59.3557 27.4228 59.3537C28.7043 59.3524 29.9342 59.8585 30.8428 60.7621L50.0096 79.9268L91.7645 38.1738C92.6748 37.2782 93.9019 36.7786 95.1787 36.7839C96.4561 36.789 97.6793 37.2986 98.5816 38.2015C99.4846 39.1045 99.9946 40.3276 99.9999 41.6046C100.005 42.8815 99.5051 44.1088 98.6094 45.019L53.4317 90.1951C52.9828 90.6456 52.4494 91.0022 51.8621 91.2456C51.2748 91.489 50.6452 91.6134 50.0096 91.6128Z" fill="#729B1B"/>
<path d="M49.9901 91.6128C50.626 91.6134 51.2557 91.489 51.8431 91.2456C52.4306 91.0022 52.9641 90.6449 53.4132 90.1951L76.0021 67.6077C76.9058 66.6994 77.4125 65.4696 77.4105 64.1882C77.4092 62.9068 76.8992 61.6777 75.9929 60.7721C75.0866 59.8658 73.8581 59.3557 72.5767 59.3537C71.2953 59.3524 70.0655 59.8585 69.1566 60.7621L49.9901 79.9268L8.23524 38.1738C7.32497 37.2782 6.09769 36.7786 4.8208 36.7839C3.54384 36.789 2.32067 37.2986 1.41775 38.2015C0.514806 39.1045 0.00523984 40.3276 4.01847e-05 41.6046C-0.00515947 42.8815 0.494431 44.1088 1.38999 45.019L46.5679 90.1951C47.0168 90.6456 47.5503 91.0022 48.1376 91.2456C48.7249 91.489 49.3544 91.6134 49.9901 91.6128Z" fill="#729B1B" fill-opacity="0.5"/>
</svg>
